<svg width="42" height="42" viewBox="0 0 42 42" fill="none" xmlns="http://www.w3.org/2000/svg">
<g clip-path="url(#clip0_29_413)">
<path d="M42 21.1277C42 31.6084 34.3105 40.2972 24.2725 41.8739V27.2387H29.1533L30.0825 21.1837H24.2725V17.2549C24.2725 15.5977 25.0845 13.9842 27.685 13.9842H30.3258V8.82869C30.3258 8.82869 27.9282 8.41919 25.6375 8.41919C20.853 8.41919 17.7275 11.3189 17.7275 16.5672V21.1819H12.4093V27.2369H17.7275V41.8722C7.69125 40.2937 0 31.6067 0 21.1277C0 9.53044 9.40275 0.127686 21 0.127686C32.5972 0.127686 42 9.52869 42 21.1277Z" fill="#2875B7"/>
</g>
<defs>
<clipPath id="clip0_29_413">
<rect width="42" height="42" fill="white"/>
</clipPath>
</defs>
</svg>
