<svg width="42" height="42" viewBox="0 0 42 42" fill="none" xmlns="http://www.w3.org/2000/svg">
<g clip-path="url(#clip0_29_416)">
<path fill-rule="evenodd" clip-rule="evenodd" d="M21 42C32.598 42 42 32.598 42 21C42 9.40202 32.598 0 21 0C9.40202 0 0 9.40202 0 21C0 32.598 9.40202 42 21 42ZM26.4396 10.0423C25.0205 9.97724 24.5942 9.96378 21 9.96378C17.4058 9.96378 16.9795 9.97724 15.5604 10.0423C14.092 10.1096 12.5899 10.4361 11.513 11.513C10.454 12.572 10.1085 14.1066 10.0423 15.5604C9.97724 16.9795 9.96378 17.4058 9.96378 21C9.96378 24.5942 9.97724 25.0205 10.0423 26.4396C10.1096 27.9024 10.4394 29.4135 11.513 30.487C12.5663 31.5415 14.1122 31.8915 15.5604 31.9577C16.9795 32.0228 17.4058 32.0362 21 32.0362C24.5942 32.0362 25.0205 32.0228 26.4396 31.9577C27.9125 31.8904 29.4079 31.5662 30.487 30.487C31.5494 29.4247 31.8915 27.899 31.9577 26.4396C32.0228 25.0205 32.0362 24.5942 32.0362 21C32.0362 17.4058 32.0228 16.9795 31.9577 15.5604C31.8904 14.0886 31.5662 12.5921 30.487 11.513C29.4179 10.4439 27.9069 10.1096 26.4396 10.0423ZM15.4494 7.61923C16.8853 7.55417 17.3441 7.53846 21 7.53846C24.6559 7.53846 25.1147 7.55417 26.5506 7.61923C28.6248 7.71346 30.6957 8.29119 32.2022 9.79776C33.7054 11.301 34.2854 13.3684 34.3808 15.4494C34.4458 16.8853 34.4615 17.3441 34.4615 21C34.4615 24.6559 34.4458 25.1147 34.3808 26.5506C34.2854 28.6304 33.7133 30.6912 32.2022 32.2022C30.699 33.7054 28.6304 34.2854 26.5506 34.3808C25.1147 34.4458 24.6559 34.4615 21 34.4615C17.3441 34.4615 16.8853 34.4458 15.4494 34.3808C13.3718 34.2854 11.3066 33.7111 9.79776 32.2022C8.29567 30.7013 7.71458 28.6293 7.61923 26.5506C7.55417 25.1147 7.53846 24.6559 7.53846 21C7.53846 17.3441 7.55417 16.8853 7.61923 15.4494C7.71458 13.3696 8.28782 11.3077 9.79776 9.79776C11.3021 8.29343 13.3684 7.71458 15.4494 7.61923ZM21 14.0875C17.1825 14.0875 14.0875 17.1826 14.0875 21C14.0875 24.8175 17.1825 27.9125 21 27.9125C24.8175 27.9125 27.9125 24.8175 27.9125 21C27.9125 17.1826 24.8175 14.0875 21 14.0875ZM21 25.4872C18.522 25.4872 16.5128 23.4781 16.5128 21C16.5128 18.522 18.522 16.5129 21 16.5129C23.4781 16.5129 25.4872 18.522 25.4872 21C25.4872 23.4781 23.4781 25.4872 21 25.4872ZM29.8016 13.8138C29.8016 14.7059 29.0784 15.4292 28.1862 15.4292C27.2941 15.4292 26.5708 14.7059 26.5708 13.8138C26.5708 12.9216 27.2941 12.1984 28.1862 12.1984C29.0784 12.1984 29.8016 12.9216 29.8016 13.8138Z" fill="#2875B7"/>
</g>
<defs>
<clipPath id="clip0_29_416">
<rect width="42" height="42" fill="white"/>
</clipPath>
</defs>
</svg>
