<svg width="145" height="31" viewBox="0 0 145 31" fill="none" xmlns="http://www.w3.org/2000/svg">
<path d="M46 29.1111H57.1111L64.0556 19.5H69.7222C79.3889 19.6111 83.7778 15.5556 85.8333 11.7222C87.5555 8.50001 86 2.72223 78.2778 2.72223H65.3333L61.3889 8.33334H72.5C77.2778 8.44445 78.8333 8.44445 77.7778 11.3889C77.1111 13.2222 74 14.1111 69.7222 13.9445H56.9444L46 29.1111Z" fill="#282828"/>
<path d="M14.2223 1.61111C14.2223 1.61111 9.38895 2.72222 9.8334 5.66667C10.3334 9.16667 18.6667 14.6667 46.8334 23.1111C40.6667 21.7222 3.44451 13.8889 4.55562 5.44444C5.27784 -0.0555549 14.2223 1.61111 14.2223 1.61111Z" fill="#282828"/>
<path d="M131.556 28.8889C131.556 28.8889 137.278 27.5556 136.778 24.0556C136.167 19.8889 126.222 13.2778 92.5557 3.22223C99.9446 4.83334 144.445 14.2222 143.111 24.2778C142.278 30.8333 131.556 28.8889 131.556 28.8889Z" fill="#282828"/>
<path d="M32.8889 19.7778L20.6667 2.72223L13 13.1667C17.5556 15.2222 25.7222 17.7222 32.8889 19.7778Z" fill="#282828"/>
<path d="M11.3334 15.4445L1.27783 29.1111H14.4445L20.3889 19.5L28.2223 29.1111H39.5556L34.0001 21.3889C18.0556 17.9445 12.9445 16.1667 11.3334 15.4445Z" fill="#282828"/>
<path d="M47.3334 23.3889L62.2223 2.72224H51.2779L43.389 12.8334L40.2779 9.66669V8.16669L44.1668 4.55558L42.5001 2.66669H24.0557L37.2779 20.9445C40.3334 21.7222 43.6112 22.5 47.3334 23.3889Z" fill="#282828"/>
<path d="M38.2224 22.2222L43.1669 29.0556L46.8335 23.9445C43.7224 23.3889 40.8335 22.7778 38.2224 22.2222Z" fill="#282828"/>
<path d="M87.4999 8.94446C87.4999 8.94446 87.5555 14.2778 80.7222 18.2222C80.7222 18.2222 88.7777 16.6667 87.4999 8.94446Z" fill="#282828"/>
<path d="M66.2778 29.1111V20.4445H71.6112C72.6112 20.4445 73.3889 20.5 73.8889 20.6667C74.3889 20.8333 74.8334 21.0556 75.1667 21.4445C75.5001 21.8333 75.6667 22.2778 75.6667 22.8333C75.6667 23.3333 75.5556 23.7222 75.2778 24.0556C75.0556 24.3889 74.6667 24.6667 74.2778 24.8889C74.0001 25 73.6112 25.1667 73.1667 25.2222C73.5556 25.3333 73.8334 25.4445 74.0001 25.5556C74.1112 25.6111 74.2778 25.7778 74.5001 26C74.7223 26.2222 74.8889 26.3889 74.9445 26.5556L76.5001 29.0556H72.8889L71.1667 26.3889C70.9445 26.0556 70.7778 25.8333 70.6112 25.7222C70.3889 25.6111 70.1112 25.5 69.8334 25.5H69.5556V29H66.2778V29.1111ZM69.5001 23.9445H70.8334C71.0001 23.9445 71.2778 23.8889 71.6667 23.8333C71.8889 23.7778 72.0556 23.7222 72.1667 23.5556C72.2778 23.3889 72.3889 23.2222 72.3889 23.0556C72.3889 22.7778 72.2778 22.5556 72.0556 22.3889C71.8334 22.2222 71.4445 22.1667 70.8334 22.1667H69.4445V23.9445H69.5001Z" fill="#282828"/>
<path d="M77.5557 20.4445H86.1668V22.2778H80.7779V23.6667H85.7779V25.4445H80.7779V27.1667H86.3334V29.1111H77.5557V20.4445Z" fill="#282828"/>
<path d="M88.0557 20.4445H91.0557L94.9445 24.8889V20.4445H97.9446V29.1111H94.9445L91.0557 24.6667V29.1111H88.0557V20.4445Z" fill="#282828"/>
<path d="M99.3889 20.4445H109.167V22.8889H105.889V29.1111H102.667V22.8889H99.3889V20.4445Z" fill="#282828"/>
<path d="M116 27.6667H112.333L111.833 29.1111H108.556L112.445 20.4445H115.945L119.833 29.1111H116.445L116 27.6667ZM115.333 25.7778L114.167 22.6667L113.056 25.7778H115.333Z" fill="#282828"/>
<path d="M120.945 20.4445H124.167V26.6111H129.167V29.0556H120.945V20.4445Z" fill="#282828"/>
</svg>
