<svg width="414" height="86" viewBox="0 0 414 86" fill="none" xmlns="http://www.w3.org/2000/svg">
<path d="M131.843 82.0185H163.689L183.593 54.4667H199.835C227.541 54.7852 240.12 43.1593 246.011 32.1704C250.948 22.9333 246.489 6.37036 224.356 6.37036H187.255L175.95 22.4555H207.796C221.49 22.7741 225.948 22.7741 222.923 31.2148C221.012 36.4704 212.095 39.0185 199.835 38.5407H163.211L131.843 82.0185Z" fill="white"/>
<path d="M40.7631 3.18524C40.7631 3.18524 26.91 6.37042 28.1838 14.8112C29.6169 24.8445 53.5015 40.6112 134.232 64.8186C116.557 60.8371 9.87229 38.3815 13.0569 14.1741C15.1269 -1.59254 40.7631 3.18524 40.7631 3.18524Z" fill="white"/>
<path d="M377.059 81.3815C377.059 81.3815 393.459 77.5593 392.026 67.5259C390.275 55.5815 361.772 36.6296 265.279 7.80371C286.456 12.4222 414 39.337 410.179 68.163C407.79 86.9556 377.059 81.3815 377.059 81.3815Z" fill="white"/>
<path d="M94.2646 55.263L59.2339 6.37036L37.26 36.3111C50.3169 42.2037 73.7239 49.3704 94.2646 55.263Z" fill="white"/>
<path d="M32.4831 42.8408L3.66235 82.0186H41.4L58.4377 54.4667L80.8893 82.0186H113.372L97.4493 59.8816C51.75 50.0075 37.1008 44.9112 32.4831 42.8408Z" fill="white"/>
<path d="M135.665 65.6149L178.339 6.37044H146.97L124.359 35.3556L115.442 26.2778V21.9778L126.589 11.626L121.812 6.21118H68.947L106.844 58.6075C115.602 60.8371 124.996 63.0667 135.665 65.6149Z" fill="white"/>
<path d="M109.551 62.2705L123.722 81.8594L134.232 67.2075C125.315 65.615 117.035 63.8631 109.551 62.2705Z" fill="white"/>
<path d="M250.788 24.2075C250.788 24.2075 250.948 39.4964 231.362 50.8038C231.362 50.8038 254.451 46.3446 250.788 24.2075Z" fill="white"/>
<path d="M189.962 82.0185V57.1741H205.249C208.115 57.1741 210.344 57.3333 211.777 57.8111C213.21 58.2889 214.484 58.9259 215.439 60.0407C216.395 61.1556 216.872 62.4296 216.872 64.0222C216.872 65.4556 216.554 66.5704 215.758 67.5259C215.121 68.4815 214.006 69.2778 212.892 69.9148C212.095 70.2333 210.981 70.7111 209.707 70.8704C210.822 71.1889 211.618 71.5074 212.095 71.8259C212.414 71.9852 212.892 72.463 213.529 73.1C214.165 73.737 214.643 74.2148 214.802 74.6926L219.261 81.8593H208.911L203.975 74.2148C203.338 73.2593 202.86 72.6222 202.382 72.3037C201.745 71.9852 200.949 71.6667 200.153 71.6667H199.357V81.7H189.962V82.0185ZM199.198 67.2074H203.019C203.497 67.2074 204.293 67.0481 205.408 66.8889C206.045 66.7296 206.522 66.5704 206.841 66.0926C207.159 65.6148 207.478 65.137 207.478 64.6593C207.478 63.863 207.159 63.2259 206.522 62.7481C205.885 62.2704 204.771 62.1111 203.019 62.1111H199.039V67.2074H199.198Z" fill="white"/>
<path d="M222.286 57.1741H246.967V62.4296H231.521V66.4111H245.852V71.5074H231.521V76.4444H247.445V82.0185H222.286V57.1741Z" fill="white"/>
<path d="M252.381 57.1741H260.979L272.125 69.9148V57.1741H280.724V82.0185H272.125L260.979 69.2778V82.0185H252.381V57.1741Z" fill="white"/>
<path d="M284.864 57.1741H312.889V64.1815H303.494V82.0185H294.259V64.1815H284.864V57.1741Z" fill="white"/>
<path d="M332.474 77.8778H321.965L320.532 82.0185H311.137L322.283 57.1741H332.315L343.461 82.0185H333.748L332.474 77.8778ZM330.563 72.463L327.219 63.5444L324.035 72.463H330.563Z" fill="white"/>
<path d="M346.646 57.1741H355.881V74.8518H370.212V81.8593H346.646V57.1741Z" fill="white"/>
</svg>
