<svg width="25" height="25" viewBox="0 0 25 25" fill="none" xmlns="http://www.w3.org/2000/svg">
<path d="M22.4443 17.42V20.42C22.4454 20.6985 22.3884 20.9741 22.2768 21.2293C22.1652 21.4845 22.0016 21.7136 21.7963 21.9018C21.5911 22.0901 21.3488 22.2335 21.085 22.3227C20.8212 22.4119 20.5416 22.445 20.2643 22.42C17.1871 22.0856 14.2313 21.0341 11.6343 19.35C9.2181 17.8146 7.16961 15.7661 5.63427 13.35C3.94425 10.7412 2.89251 7.77097 2.56427 4.67997C2.53928 4.40344 2.57214 4.12474 2.66077 3.8616C2.74939 3.59846 2.89184 3.35666 3.07904 3.1516C3.26623 2.94653 3.49407 2.78268 3.74806 2.6705C4.00205 2.55831 4.27661 2.50024 4.55427 2.49997H7.55427C8.03958 2.4952 8.51006 2.66705 8.87803 2.98351C9.246 3.29996 9.48635 3.73942 9.55427 4.21997C9.68089 5.18004 9.91572 6.1227 10.2543 7.02997C10.3888 7.3879 10.4179 7.77689 10.3382 8.15086C10.2584 8.52482 10.0731 8.86809 9.80427 9.13998L8.53427 10.41C9.95782 12.9135 12.0307 14.9864 14.5343 16.41L15.8043 15.14C16.0762 14.8711 16.4194 14.6858 16.7934 14.6061C17.1674 14.5263 17.5563 14.5554 17.9143 14.69C18.8215 15.0285 19.7642 15.2634 20.7243 15.39C21.21 15.4585 21.6537 15.7032 21.9708 16.0775C22.2879 16.4518 22.4564 16.9296 22.4443 17.42Z" stroke="#282828" stroke-width="2" stroke-linecap="round" stroke-linejoin="round"/>
</svg>
