<svg width="83" height="83" viewBox="0 0 83 83" fill="none" xmlns="http://www.w3.org/2000/svg">
<g clip-path="url(#clip0_14_22)">
<path d="M14.7633 57.4069C13.4291 57.4069 12.3374 56.3152 12.3374 54.981V41.1534C12.3374 39.8192 13.4291 38.7276 14.7633 38.7276H19.771C20.9493 38.7276 21.937 39.5766 22.1276 40.7376L24.0683 49.5054C24.0856 49.6094 24.103 49.7653 24.103 49.904V54.981C24.103 56.3152 23.0113 57.4069 21.6771 57.4069H14.7633ZM14.4167 50.805V54.9637L14.7633 55.3102H21.6771L22.0236 54.9637V50.805L21.6771 50.4585H14.7633L14.4167 50.805ZM14.4167 41.1361V48.0499L14.7633 48.3964H21.3652L21.7117 47.9979L20.1002 41.0668L19.7537 40.7722H14.7633L14.4167 41.1361Z" fill="white"/>
<path d="M59.3303 70.524H57.251V72.6033H59.3303V70.524Z" fill="white"/>
<path d="M8.81981 70.524H6.74048V72.6033H8.81981V70.524Z" fill="white"/>
<path d="M51.0129 51.1689H46.1785V53.2482H51.0129V51.1689Z" fill="white"/>
<path d="M51.0303 55.3102H48.9509V57.3896H51.0303V55.3102Z" fill="white"/>
<path d="M79.9329 41.0668H78.1828L77.8363 40.7203V2.54718C77.8363 1.99269 77.3857 1.54217 76.8313 1.54217H70.6279C70.0734 1.54217 69.6229 1.99269 69.6229 2.54718V18.0555V18.1768C69.5883 18.8873 71.4077 19.6843 71.6503 18.1768V3.89875L71.9968 3.55219H75.497L75.8436 3.89875V40.7203L75.497 41.0668H71.9968L71.6503 40.7203V22.6127C71.529 21.729 69.8135 21.3825 69.6229 22.7167V40.7376L69.2764 41.0841H67.5263C67.1104 41.0841 66.7812 41.4134 66.7812 41.8292V43.3541L66.5212 43.6833L53.0402 47.0102L52.9536 47.0276H28.5908L28.2442 46.681V46.629L25.8356 37.7399C25.5411 35.9031 23.9642 34.5689 22.0928 34.5689H11.9908C9.8941 34.5689 8.17865 36.2843 8.17865 38.381V46.681L8.12667 46.733L8.17865 49.4534L8.144 59.5035C8.144 60.6299 9.04504 61.5482 10.1713 61.5482H17.4837L17.8302 61.8948V64.6672L17.4837 65.0138H7.78011C4.15861 65.0138 1.21289 67.9595 1.21289 71.5637C1.21289 75.1852 4.15861 78.1482 7.78011 78.1482H58.2906C61.9121 78.1482 64.8578 75.2025 64.8578 71.581C64.8578 67.9595 61.9121 65.0138 58.2906 65.0138H48.6043L48.2578 64.6672V61.8948L48.6043 61.5482H52.763C53.5947 61.5482 54.3918 61.2883 55.0503 60.7858L55.1196 60.7512L66.3133 56.0207L66.7985 56.3326V57.0603C66.7985 57.4762 67.1277 57.8054 67.5436 57.8054H69.3457L69.6922 58.152V72.9499C69.6922 73.4697 70.1254 73.9029 70.6452 73.9029H76.8486C77.3684 73.9029 77.8016 73.4697 77.8016 72.9499V58.1173L78.1482 57.7708H79.9503C80.3661 57.7708 80.6954 57.4415 80.6954 57.0257V41.8119C80.6954 41.4134 80.3488 41.0668 79.9329 41.0668ZM11.8868 59.4689C10.9858 59.4689 10.258 58.7411 10.258 57.8401V38.381C10.258 37.428 11.0377 36.6482 11.9908 36.6482H22.0928C22.9419 36.6482 23.6523 37.2547 23.8083 38.0864L26.1649 46.6117V46.681V59.105L25.8183 59.4516H11.8868V59.4689ZM45.8319 61.5482L46.1784 61.8948V64.6672L45.8319 65.0138H20.2388L19.8922 64.6672V61.8948L20.2388 61.5482H45.8319ZM7.78011 76.0689C5.30224 76.0689 3.27489 74.0415 3.27489 71.5637C3.27489 69.0858 5.30224 67.0585 7.78011 67.0585C10.258 67.0585 12.2853 69.0858 12.2853 71.5637C12.2853 74.0415 10.258 76.0689 7.78011 76.0689ZM58.2906 67.0585C60.7684 67.0585 62.7958 69.0858 62.7958 71.5637C62.7958 74.0415 60.7684 76.0689 58.2906 76.0689C55.8127 76.0689 53.7853 74.0415 53.7853 71.5637C53.7853 69.0858 55.8127 67.0585 58.2906 67.0585ZM52.7977 67.0585L53.0749 67.6129C51.2901 69.9349 51.2901 73.1752 53.0749 75.4971L52.7977 76.0516H47.2354L46.8889 75.705V73.2791H44.8096V75.705L44.463 76.0516H38.9528L38.6062 75.705V73.2791H36.5269V75.705L36.1803 76.0516H30.0983L29.7517 75.705V73.2791H27.6724V75.705L27.3258 76.0516H21.625L21.2784 75.705V73.2791H19.1991V75.705L18.8526 76.0516H13.273L12.9958 75.4971C14.7805 73.1752 14.7805 69.9349 12.9958 67.6129L13.273 67.0585H22.9939L23.3404 67.405V69.8309H25.4198V67.405L25.7663 67.0585H31.6578L32.0043 67.405V69.8309H34.0837V67.405L34.4302 67.0585H40.3217L40.6682 67.405V69.8309H42.7475V67.405L43.0941 67.0585H52.7977ZM54.4958 57.7361C54.4958 58.6891 53.716 59.4689 52.763 59.4689H28.5908L28.2442 59.1223V49.4361L28.5908 49.0896H52.763C53.716 49.0896 54.4958 49.8693 54.4958 50.8223V57.7361ZM66.7812 53.5081L66.5732 53.82L57.043 57.8574L56.5578 57.5455V50.8397C56.5578 50.0946 56.3325 49.3495 55.934 48.7603L56.1419 48.2232L66.348 45.7106L66.7812 46.0399V53.5081ZM75.8782 71.6503L75.5317 71.9969H71.9275L71.5809 71.6503V58.1347L71.9275 57.7881H75.5317L75.8782 58.1347V71.6503ZM79.1878 55.9514L78.8413 56.2979H68.6179L68.2713 55.9514V42.9209L68.6179 42.5743H78.8413L79.1878 42.9209V55.9514Z" fill="white"/>
</g>
<defs>
<clipPath id="clip0_14_22">
<rect width="83" height="83" fill="white"/>
</clipPath>
</defs>
</svg>
