<svg width="79" height="79" viewBox="0 0 79 79" fill="none" xmlns="http://www.w3.org/2000/svg">
<path d="M77.1638 49.267C75.698 47.1223 72.7509 46.5514 70.5908 48.0018L62.3667 53.4947L62.2279 53.5873L60.7621 54.5748L58.571 56.0406L55.4542 58.1236L52.1677 57.9385L52.0751 57.059C51.7666 53.973 49.4984 51.5043 46.4896 50.9025L44.2986 50.6248L35.1025 49.5602L34.2384 49.4676V49.4367L32.0474 49.0818C29.9798 48.6035 27.9894 47.832 26.1378 46.7365C25.9064 46.5977 25.6749 46.4742 25.4435 46.3508C25.3509 46.3045 25.2584 46.2582 25.1658 46.2119C25.0269 46.1348 24.8726 46.0576 24.7337 45.9959C24.6257 45.9342 24.5023 45.8879 24.3789 45.8262C24.2554 45.7645 24.132 45.7027 24.0085 45.6564C23.8851 45.5947 23.7617 45.5484 23.6228 45.4867C23.4994 45.4404 23.3914 45.3787 23.2679 45.3324C23.1445 45.2861 23.0056 45.2244 22.8667 45.1781C22.7433 45.1318 22.6353 45.0855 22.5119 45.0393C22.3884 44.993 22.2496 44.9467 22.1261 44.9004C22.0027 44.8541 21.8792 44.8078 21.7558 44.777C21.6324 44.7307 21.5089 44.6998 21.3701 44.6535C21.2312 44.6072 21.0923 44.5764 20.9689 44.5301C20.8455 44.4992 20.7375 44.4684 20.614 44.4221C20.4597 44.3758 20.3054 44.3449 20.1511 44.2986C20.074 44.2832 20.0123 44.2523 19.9351 44.2369L17.7441 43.8049C16.6486 43.6506 15.5222 43.558 14.4113 43.558H12.5443V42.8945C12.5443 40.6881 10.739 38.8828 8.53257 38.8828H5.03003C2.82358 38.8828 1.01831 40.6881 1.01831 42.8945V60.1141C1.01831 60.7158 1.51206 61.2096 2.11382 61.2096C2.71558 61.2096 3.20933 60.7158 3.20933 60.1141V42.9254C3.20933 41.9225 4.0271 41.1047 5.03003 41.1047H8.548C9.55093 41.1047 10.3687 41.9225 10.3687 42.9254V44.6844V67.2117V68.9553C10.3687 69.9582 9.55093 70.776 8.548 70.776H5.03003C4.0271 70.776 3.20933 69.9582 3.20933 68.9553V67.0266C3.20933 66.4248 2.71558 65.9311 2.11382 65.9311C1.51206 65.9311 1.01831 66.4248 1.01831 67.0266V68.9553C1.01831 71.1617 2.82358 72.967 5.03003 72.967H8.548C10.7544 72.967 12.5597 71.1617 12.5597 68.9553V68.801L28.6529 74.8957C28.6837 74.9111 28.7146 74.9111 28.7455 74.9266C29.4398 75.1271 30.1496 75.2197 30.8285 75.2197C31.1988 75.2197 31.5691 75.1889 31.9394 75.1271L55.5777 71.7172H55.5931C57.599 71.3932 59.4968 70.5445 61.0707 69.2639C61.0861 69.2484 61.1015 69.2484 61.1169 69.233L76.3923 55.5006C78.1667 53.8959 78.5062 51.2266 77.1638 49.267ZM74.9265 53.8496L59.6666 67.582C58.4013 68.6158 56.8738 69.2947 55.2537 69.557L31.6154 72.967H31.6H31.5845C30.8748 73.075 30.1187 73.0287 29.3626 72.8281L12.5443 66.4557V45.7799H14.4267C16.0314 45.7799 17.6207 45.965 19.1636 46.3199C19.2253 46.3354 19.2716 46.3508 19.3334 46.3662C19.5185 46.4125 19.7191 46.4588 19.9042 46.5051C19.9197 46.5051 19.9351 46.5205 19.9505 46.5205C20.1357 46.5668 20.3209 46.6285 20.5214 46.6902C20.5523 46.7057 20.5832 46.7057 20.6294 46.7211C20.83 46.7828 21.0306 46.8445 21.2312 46.9217C21.2466 46.9217 21.2775 46.9371 21.2929 46.9371C21.7095 47.076 22.1107 47.2303 22.5119 47.4C22.5273 47.4154 22.5582 47.4154 22.5736 47.4309C22.7742 47.508 22.9748 47.6006 23.1753 47.6932H23.1908C23.3759 47.7857 23.5765 47.8783 23.7617 47.9709C23.7771 47.9863 23.808 47.9863 23.8234 48.0018C24.0085 48.0943 24.1937 48.1869 24.3789 48.2949C24.4097 48.3104 24.4406 48.3258 24.4869 48.3566C24.672 48.4492 24.8572 48.5572 25.0423 48.6652C27.65 50.1928 30.5044 51.1803 33.4978 51.6123C33.5132 51.6123 33.5132 51.6123 33.5287 51.6123L45.8416 53.0318C45.9033 53.0473 45.9804 53.0473 46.0421 53.0627C47.8474 53.4021 49.2824 54.7445 49.7607 56.4881C49.8378 56.7504 49.8841 57.0127 49.915 57.2904L49.9613 57.7842L26.8939 55.7629C26.2921 55.7166 25.7521 56.1641 25.7058 56.7658C25.6595 57.3676 26.107 57.9076 26.7087 57.9539L51.0722 60.0678H51.0876H51.1031L55.7011 60.3301C55.7166 60.3301 55.7474 60.3301 55.7628 60.3301C55.7783 60.3301 55.8091 60.3301 55.8246 60.3301C55.8554 60.3301 55.8708 60.3301 55.9017 60.3301C55.9326 60.3301 55.9634 60.3146 55.9943 60.3146C56.0097 60.3146 56.0406 60.2992 56.056 60.2992C56.0869 60.2838 56.1177 60.2684 56.164 60.2684C56.1794 60.2684 56.1949 60.2529 56.2257 60.2529C56.272 60.2221 56.3337 60.2066 56.38 60.1758L60.2837 57.5682L71.8097 49.8533C72.9669 49.0664 74.5562 49.375 75.3431 50.5322C76.0683 51.5506 75.8986 52.9855 74.9265 53.8496Z" fill="white"/>
<path d="M40.3022 13.1924C40.3022 13.7324 40.7497 14.1799 41.2897 14.1799H41.3206C41.8606 14.1799 42.3081 13.7324 42.3081 13.1924C42.3081 12.6523 41.8606 12.2049 41.3206 12.2049H41.2897C40.7497 12.2049 40.3022 12.6523 40.3022 13.1924Z" fill="white"/>
<path d="M44.7925 43.0951C44.7925 43.6352 45.2399 44.0826 45.78 44.0826H50.9181C51.4581 44.0826 51.9056 43.6352 51.9056 43.0951C51.9056 42.5551 51.4581 42.1076 50.9181 42.1076H45.78C45.2245 42.1076 44.7925 42.5396 44.7925 43.0951Z" fill="white"/>
<path d="M44.7925 46.9062C44.7925 47.4463 45.2399 47.8937 45.78 47.8937H53.572C54.112 47.8937 54.5595 47.4463 54.5595 46.9062C54.5595 46.3662 54.112 45.9187 53.572 45.9187H45.78C45.2245 45.9187 44.7925 46.3662 44.7925 46.9062Z" fill="white"/>
<path d="M57.3984 46.2119C57.2132 46.3971 57.1052 46.6439 57.1052 46.9062C57.1052 47.1686 57.2132 47.4154 57.3984 47.6006C57.5835 47.7857 57.8304 47.8937 58.0927 47.8937C58.355 47.8937 58.6019 47.7857 58.7871 47.6006C58.9722 47.4154 59.0802 47.1686 59.0802 46.9062C59.0802 46.6439 58.9722 46.3971 58.7871 46.2119C58.6019 46.0268 58.355 45.9187 58.0927 45.9187C57.8304 45.9187 57.5835 46.0268 57.3984 46.2119Z" fill="white"/>
<path d="M61.6725 50.1465H51.0569C51.9055 51.1648 53.2325 51.7666 54.5131 52.1215H58.818L61.6725 50.1465Z" fill="white"/>
<path d="M17.0189 32.14H20.6603C21.154 34.0842 21.9255 35.9357 22.9439 37.6484L20.3671 40.2252C20.182 40.4104 20.0894 40.6572 20.074 40.9041C21.1232 41.259 22.4501 41.7373 23.808 42.2773L22.4501 40.9195L24.8726 38.4971C25.1966 38.173 25.2583 37.6484 25.0115 37.2627C23.7617 35.3186 22.8822 33.1893 22.4039 30.9365C22.3113 30.4891 21.9101 30.1496 21.4318 30.1496H18.0064V23.4531H21.4472C21.9101 23.4531 22.3113 23.1291 22.4193 22.6816C22.913 20.4289 23.7925 18.2996 25.0423 16.3709C25.2892 15.9852 25.2429 15.4605 24.9035 15.1365L22.4656 12.6986L27.2179 7.94629L29.6558 10.3842C29.9798 10.7082 30.5044 10.7699 30.8902 10.523C32.8343 9.27324 34.9482 8.39375 37.2009 7.9C37.6484 7.80742 37.9724 7.40625 37.9724 6.92793V3.47168H44.6998V6.89707C44.6998 7.35996 45.0238 7.76113 45.4867 7.86914C47.7394 8.36289 49.8687 9.24238 51.8128 10.4768C52.1986 10.7236 52.7232 10.6773 53.0472 10.3379L55.4697 7.91543L60.222 12.6678L57.7996 15.0902C57.4755 15.4143 57.4138 15.9389 57.6607 16.3246C58.9105 18.2688 59.79 20.398 60.2837 22.6508C60.3763 23.0982 60.7775 23.4223 61.2558 23.4223H64.6658V28.3289H55.8554C55.9017 27.8197 55.9326 27.2951 55.9326 26.7859C55.9326 23.6229 54.9296 20.5986 53.0472 18.0682C51.2265 15.6148 48.6189 13.7633 45.7181 12.8529C45.1935 12.6832 44.638 12.9764 44.4837 13.501C44.314 14.0256 44.6072 14.5811 45.1318 14.7354C50.4087 16.4018 53.9576 21.2313 53.9576 26.7859C53.9576 27.2951 53.9267 27.8197 53.865 28.3289H48.0789C48.1869 27.8197 48.2486 27.3106 48.2486 26.7859C48.2486 22.9748 45.1472 19.858 41.3206 19.858C37.4941 19.858 34.4082 22.9902 34.4082 26.8014C34.4082 30.3348 37.0621 33.251 40.4874 33.6676V39.392C33.9144 38.96 28.6992 33.4824 28.6992 26.8014C28.6992 21.1541 32.4949 16.1549 37.9107 14.6428C38.4353 14.4885 38.7439 13.9484 38.5896 13.4238C38.4353 12.8992 37.8953 12.5906 37.3706 12.7449C34.3619 13.5936 31.6462 15.4143 29.733 17.9139C27.758 20.4906 26.7087 23.5611 26.7087 26.8168C26.7087 34.5934 32.8035 40.9504 40.472 41.3979V47.7549C41.6601 47.8629 42.447 47.9092 42.447 47.9092V30.3193H47.1531V39.932C47.1531 40.3332 47.3999 40.6881 47.7703 40.8424C47.8937 40.8887 48.0171 40.9195 48.1406 40.9195C48.4029 40.9195 48.6498 40.8115 48.8349 40.6264L53.541 35.9049L58.247 40.6264C58.5248 40.9041 58.9568 40.9967 59.3271 40.8424C59.6974 40.6881 59.9443 40.3332 59.9443 39.932V30.3193H64.6503V48.048L66.6253 46.6748V22.4502C66.6253 21.9102 66.1779 21.4627 65.6378 21.4627H62.0273C61.5335 19.5186 60.7621 17.667 59.7283 15.9389L62.2896 13.3775C62.6753 12.9918 62.6753 12.3592 62.2896 11.9734L56.1331 5.81699C55.948 5.63184 55.7011 5.52383 55.4388 5.52383C55.1765 5.52383 54.9296 5.63184 54.7445 5.81699L52.1832 8.37832C50.455 7.35996 48.6035 6.58848 46.6748 6.09473V2.48418C46.6748 1.94414 46.2273 1.49668 45.6873 1.49668H36.9849C36.4449 1.49668 35.9974 1.94414 35.9974 2.48418V6.12559C34.0533 6.61934 32.2171 7.39082 30.489 8.40918L27.9123 5.83242C27.7271 5.64727 27.4802 5.53926 27.2179 5.53926C26.9556 5.53926 26.7087 5.64727 26.5236 5.83242L20.3671 11.9889C19.9814 12.3746 19.9814 13.0072 20.3671 13.393L22.9439 15.9697C21.9255 17.6979 21.154 19.534 20.6603 21.4781H17.0189C16.4789 21.4781 16.0314 21.9256 16.0314 22.4656V31.168C16.016 31.708 16.4634 32.14 17.0189 32.14ZM46.0267 28.3443H41.4749C40.9349 28.3443 40.4874 28.7918 40.4874 29.3318V31.6772C38.1576 31.276 36.3832 29.2393 36.3832 26.8014C36.3832 24.0703 38.605 21.8639 41.3206 21.8639C44.0517 21.8639 46.2581 24.0857 46.2581 26.8014C46.2736 27.3414 46.1964 27.8506 46.0267 28.3443ZM57.9847 37.5404L54.2662 33.8064C54.081 33.6213 53.8341 33.5133 53.5718 33.5133C53.3095 33.5133 53.0626 33.6213 52.8775 33.8064L49.1589 37.5404V30.3348H58.0001V37.5404H57.9847Z" fill="white"/>
<path d="M37.1855 45.7645C34.9328 45.2707 32.8035 44.3912 30.8594 43.1414C30.4736 42.8945 29.949 42.9408 29.625 43.2803L28.4678 44.4375C28.8844 44.6844 29.2547 44.9158 29.5633 45.1627C29.733 45.3016 29.9336 45.425 30.165 45.5484L30.4736 45.2398C31.3994 45.7953 32.3715 46.2582 33.3744 46.6594C34.8557 47.0143 36.4912 47.2766 37.9725 47.4771V46.752C37.9725 46.2582 37.6484 45.857 37.1855 45.7645Z" fill="white"/>
</svg>
