<svg width="79" height="80" viewBox="0 0 79 80" fill="none" xmlns="http://www.w3.org/2000/svg">
<path d="M78.6759 72.8594L78.6297 71.7656C78.5988 71.2031 78.1359 70.7812 77.5959 70.7969C77.0404 70.8281 76.6238 71.2969 76.6392 71.8438L76.6855 72.9375V72.9531C76.7009 73.1562 76.6238 73.3438 76.5003 73.5C76.3615 73.6406 76.1763 73.7344 75.9757 73.7344H70.1588V55.1562L71.6554 55.6875C74.2322 56.6094 76.022 59 76.2072 61.7656L76.3769 65.5781C76.4078 66.1406 76.8707 66.5625 77.4107 66.5469C77.9662 66.5156 78.3828 66.0469 78.3673 65.5L78.1976 61.6719V61.6562C77.9662 58.0781 75.6671 54.9844 72.3343 53.7969L69.557 52.7969C69.5416 52.7969 69.5261 52.7812 69.5107 52.7812L61.225 49.8125C61.1941 49.7969 61.1632 49.7969 61.1324 49.7813C61.117 49.7813 61.1015 49.7813 61.0861 49.7656C60.5306 49.625 59.9443 49.7813 59.5431 50.1875L59.2808 50.4531L57.0898 49.3438V47.4062C57.7533 46.9531 58.3705 46.3906 58.9414 45.7812L58.9568 45.7656C60.3918 44.2031 61.441 42.25 61.7959 40.2969C61.8113 40.25 61.8113 40.1875 61.8267 40.1406C61.8421 40.0938 61.8421 40.0312 61.8576 39.9844C61.873 39.8906 61.8884 39.8125 61.8884 39.7187C61.8884 39.7031 61.8884 39.6719 61.9039 39.6562C61.9193 39.5625 61.9193 39.4688 61.9347 39.375H62.3513C63.632 39.375 64.6812 38.3125 64.6812 37.0156V34.375C64.6812 34.25 64.6658 34.125 64.6503 34C64.7892 33.7344 64.8818 33.4219 64.8818 33.0938V31.9688C64.8818 31.1094 64.3263 30.3906 63.5548 30.1719V30.0156C63.5548 29.9219 63.5548 29.8281 63.5548 29.7344C63.4931 27.0469 62.4439 24.5 60.6232 22.5781C58.9568 20.8125 56.7812 19.7031 54.4513 19.3906C54.4205 19.3281 54.3742 19.2656 54.3433 19.2031C54.3279 19.1875 54.3279 19.1719 54.3125 19.1562C54.2662 19.0937 54.2353 19.0312 54.189 18.9844C54.1736 18.9687 54.1736 18.9688 54.1582 18.9531C54.0964 18.8906 54.0502 18.8281 53.9884 18.7656C53.9267 18.7031 53.865 18.6562 53.8033 18.5937L53.7879 18.5781C53.649 18.4688 53.5101 18.375 53.3558 18.2812C53.3404 18.2812 53.325 18.2656 53.3095 18.2656C53.2324 18.2188 53.1552 18.1875 53.0781 18.1562H53.0627C52.9855 18.125 52.9238 18.0937 52.8466 18.0781C52.8312 18.0781 52.8004 18.0625 52.7849 18.0625C52.7078 18.0312 52.6306 18.0156 52.538 18H52.5226C52.4455 17.9844 52.3683 17.9687 52.2912 17.9687C52.2757 17.9687 52.2449 17.9687 52.2295 17.9687C52.1369 17.9531 52.0597 17.9531 51.9671 17.9531H51.0259C50.9334 17.9531 50.8562 17.9531 50.7636 17.9687C50.7482 17.9687 50.7173 17.9687 50.7019 17.9687C50.6248 17.9844 50.5476 17.9844 50.4705 18H50.455C50.3779 18.0156 50.2853 18.0312 50.2082 18.0625C50.1927 18.0625 50.1619 18.0781 50.1464 18.0781C50.0693 18.1094 49.9921 18.125 49.9304 18.1562H49.915C49.8379 18.1875 49.7607 18.2344 49.6836 18.2656C49.6681 18.2656 49.6527 18.2812 49.6373 18.2812C49.5601 18.3281 49.4984 18.3594 49.4212 18.4063C49.3441 18.4531 49.2824 18.5156 49.2052 18.5625L49.1898 18.5781C49.1281 18.625 49.0664 18.6875 49.0046 18.75C48.9429 18.8125 48.8812 18.875 48.8349 18.9375C48.8195 18.9531 48.8195 18.9531 48.8041 18.9688C48.7578 19.0312 48.7115 19.0781 48.6806 19.1406C48.6652 19.1562 48.6652 19.1719 48.6498 19.1875C48.6035 19.25 48.5726 19.3125 48.5418 19.375C46.1964 19.6719 44.0209 20.7969 42.3699 22.5625C41.475 23.5 40.7806 24.5937 40.2869 25.7656C40.2869 25.7656 39.7468 27.2344 39.6388 27.9063C39.6234 28.0313 39.5925 28.1875 39.5617 28.3437C39.5617 28.3906 39.5462 28.4375 39.5462 28.4844C39.5308 28.5781 39.5154 28.6719 39.5154 28.7656C39.5 28.8438 39.5 28.9219 39.5 29C39.5 29.0781 39.4845 29.1562 39.4845 29.2188C39.4691 29.375 39.4691 29.5312 39.4691 29.6875C39.4691 29.7812 39.4691 29.875 39.4691 29.9688V30.125C39.4074 30.1406 39.3457 30.1719 39.2994 30.1875C39.2839 30.1875 39.2685 30.2031 39.2377 30.2187C39.1914 30.2344 39.1296 30.2656 39.0834 30.2969C39.0834 30.2969 38.1421 30.8125 38.1421 32.2031V33.0625C38.1421 33.125 38.1421 33.1719 38.1576 33.2344C38.1576 33.25 38.1576 33.25 38.1576 33.2656C38.1884 33.5156 38.2656 33.75 38.3736 33.9687C38.3582 34.0937 38.3427 34.2188 38.3427 34.3281V36.9688C38.3427 38.2656 39.392 39.3281 40.6726 39.3281H41.0892C41.0892 39.4219 41.1046 39.5313 41.1201 39.625C41.1201 39.6563 41.1201 39.6875 41.1355 39.7031C41.1509 39.7813 41.1509 39.875 41.1664 39.9531C41.1664 40 41.1818 40.0469 41.1818 40.1094C41.1972 40.1719 41.1972 40.2344 41.2127 40.2812C41.2281 40.4062 41.2589 40.5313 41.2898 40.6563C41.2898 40.6719 41.3052 40.7031 41.3052 40.7188C41.3207 40.7969 41.3515 40.8906 41.367 40.9688C41.367 40.9844 41.3824 41 41.3824 41.0156C41.5521 41.6562 41.8144 42.2969 42.123 42.9219C42.123 42.9219 42.123 42.9375 42.1384 42.9375C42.2619 43.1875 42.4007 43.4375 42.5396 43.6719C42.555 43.7031 42.5705 43.7344 42.6013 43.7656C42.6322 43.8281 42.6785 43.8906 42.7248 43.9531C42.7556 44 42.7865 44.0469 42.8173 44.0938C42.8482 44.1406 42.8791 44.2031 42.9254 44.25C42.9871 44.3438 43.0488 44.4375 43.1259 44.5312C43.1568 44.5781 43.1877 44.6094 43.2185 44.6562C43.2648 44.7188 43.3111 44.7969 43.3728 44.8594C43.4037 44.8906 43.4345 44.9375 43.45 44.9688C43.5117 45.0625 43.5888 45.1406 43.666 45.2344C43.6814 45.25 43.6814 45.2656 43.6968 45.2656C43.774 45.3594 43.8511 45.4531 43.9283 45.5469C43.9591 45.5781 43.99 45.6094 44.0209 45.6406C44.0826 45.7031 44.1289 45.7656 44.1906 45.8281C44.2214 45.8594 44.2523 45.8906 44.2832 45.9375C44.3603 46.0156 44.422 46.0781 44.4992 46.1562C44.5455 46.2031 44.6072 46.25 44.6535 46.3125C44.6998 46.3594 44.7461 46.3906 44.7923 46.4375C44.8541 46.4844 44.9003 46.5313 44.9621 46.5781C44.9929 46.6094 45.0238 46.625 45.0546 46.6563C45.3478 46.9219 45.6564 47.1563 45.9804 47.375V49.2969L43.7894 50.4062L43.5271 50.1406C43.2802 49.8906 42.9716 49.7344 42.6322 49.6875C42.6013 49.6875 42.555 49.6719 42.5242 49.6719C42.4933 49.6719 42.447 49.6719 42.4162 49.6719C42.3853 49.6719 42.339 49.6719 42.3082 49.6719C42.2002 49.6719 42.1076 49.6875 41.9996 49.7188C41.9841 49.7188 41.9533 49.7344 41.9378 49.7344C41.907 49.75 41.8761 49.75 41.8453 49.7656L38.1113 51.0938L36.1209 51.8125L35.9357 51.875L33.5595 52.7344C33.5441 52.7344 33.5287 52.75 33.5132 52.75L30.7359 53.75C30.6279 53.7812 30.5353 53.8281 30.4273 53.875C30.3964 53.8906 30.3656 53.9062 30.3347 53.9219C30.3039 53.9375 30.2884 53.9375 30.2576 53.9531C30.2113 53.9688 30.165 53.9844 30.1187 54.0156C30.0724 54.0313 30.0261 54.0625 29.9798 54.0781C29.9336 54.1094 29.8718 54.125 29.8255 54.1562C29.7793 54.1875 29.733 54.2031 29.6867 54.2344C29.6404 54.2656 29.5941 54.2812 29.5324 54.3125C29.4861 54.3438 29.4398 54.3594 29.3935 54.3906C29.3472 54.4219 29.2855 54.4531 29.2392 54.4688C29.1929 54.5 29.1466 54.5156 29.1158 54.5469C29.0849 54.5625 29.0541 54.5781 29.0232 54.6094C29.0232 54.6094 27.866 55.1719 27.0328 56.3125C27.0019 56.3594 26.9711 56.3906 26.9402 56.4219C26.8939 56.4688 26.863 56.5156 26.8168 56.5625C26.7859 56.5938 26.7705 56.625 26.7396 56.6562C26.6933 56.7031 26.6625 56.7656 26.6162 56.8125C26.5853 56.8438 26.5699 56.875 26.539 56.9219C26.5082 56.9688 26.4619 57.0312 26.431 57.0781C26.4002 57.1094 26.3847 57.1406 26.3539 57.1875C26.323 57.2344 26.2767 57.2969 26.2459 57.3438C26.2304 57.375 26.1996 57.4219 26.1841 57.4531C26.1533 57.5156 26.1224 57.5625 26.0761 57.625C26.0607 57.6562 26.0298 57.7031 26.0144 57.7344C25.9836 57.7969 25.9527 57.8438 25.9218 57.9062C25.9064 57.9375 25.8755 57.9844 25.8601 58.0156C25.8293 58.0781 25.7984 58.125 25.7675 58.1875C25.7521 58.2344 25.7212 58.2656 25.7058 58.3125C25.675 58.375 25.6441 58.4219 25.6287 58.4844C25.6132 58.5312 25.5978 58.5625 25.567 58.6094C25.5361 58.6719 25.5207 58.7188 25.4898 58.7813C25.4744 58.8281 25.4589 58.875 25.4435 58.9062C25.4281 58.9688 25.3972 59.0156 25.3818 59.0781C25.3664 59.125 25.3509 59.1719 25.3355 59.2188C25.3201 59.2812 25.2892 59.3281 25.2738 59.3906C25.2584 59.4375 25.2429 59.4844 25.2275 59.5312C25.2121 59.5938 25.1966 59.6406 25.1812 59.7031C25.1658 59.75 25.1503 59.7969 25.1349 59.8438C25.1195 59.9062 25.1041 59.9531 25.0886 60.0156C25.0732 60.0625 25.0732 60.1094 25.0578 60.1562C25.0423 60.2188 25.0269 60.2656 25.0115 60.3281C24.9961 60.375 24.9961 60.4219 24.9806 60.4844C24.9652 60.5469 24.9652 60.5938 24.9498 60.6563C24.9343 60.7031 24.9343 60.7656 24.9189 60.8125C24.9035 60.875 24.9035 60.9219 24.888 60.9844C24.888 61.0312 24.8726 61.0938 24.8726 61.1406C24.8726 61.2031 24.8572 61.25 24.8572 61.3125C24.8572 61.375 24.8418 61.4219 24.8418 61.4844C24.8418 61.5312 24.8263 61.5938 24.8263 61.6406L24.7337 63.8594L24.348 72.8594C24.3017 73.6094 24.564 74.3438 25.0732 74.8906C25.5824 75.4375 26.2921 75.75 27.0482 75.75H76.13C76.8707 75.75 77.5959 75.4375 78.105 74.8906C78.4445 74.3438 78.7222 73.5938 78.6759 72.8594ZM32.7109 73.7344H26.8939C26.6933 73.7344 26.5082 73.6562 26.3693 73.5C26.2304 73.3594 26.1687 73.1562 26.1841 72.9531V72.9375L26.6625 61.7656C26.7705 60.1094 27.4494 58.5938 28.5295 57.4375C28.5449 57.4219 28.5449 57.4219 28.5603 57.4062C29.1929 56.7344 29.9644 56.2031 30.813 55.8438C30.8285 55.8438 30.8439 55.8281 30.8593 55.8281C30.9673 55.7812 31.0908 55.7344 31.1988 55.6875L32.6955 55.1562V73.7344H32.7109ZM62.6445 37.0156C62.6445 37.2031 62.4902 37.3594 62.305 37.3594H61.9039V34.9688H62.6291V37.0156H62.6445ZM50.1156 20.5781C50.1619 20.4219 50.2236 20.2969 50.3162 20.1875C50.347 20.1562 50.3779 20.125 50.4088 20.0938C50.4088 20.0938 50.4242 20.0937 50.4242 20.0781C50.4859 20.0312 50.563 19.9844 50.6556 19.9531H50.6711C50.7173 19.9375 50.7482 19.9219 50.7945 19.9219H50.8099C50.8562 19.9219 50.9025 19.9062 50.9488 19.9062H51.89C51.9363 19.9062 51.9826 19.9062 52.0289 19.9219H52.0443C52.0906 19.9219 52.1214 19.9375 52.1677 19.9531H52.1832C52.2603 19.9844 52.3375 20.0312 52.4146 20.0781C52.4146 20.0781 52.43 20.0781 52.43 20.0938C52.4609 20.125 52.4918 20.1562 52.5226 20.1875C52.5226 20.1875 52.5226 20.1875 52.5226 20.2031C52.6152 20.3125 52.6923 20.4375 52.7232 20.5781C52.7232 20.5781 52.7232 20.5781 52.7232 20.5938C52.7386 20.6563 52.7541 20.7344 52.7541 20.7969V24.1875C52.7541 24.6719 52.3683 25.0781 51.8746 25.0781H50.9334C50.455 25.0781 50.0539 24.6875 50.0539 24.1875V20.7969C50.0847 20.7188 50.1002 20.6406 50.1156 20.5781ZM40.9503 37.3438H40.5492C40.364 37.3438 40.2097 37.1875 40.2097 37V34.9531H40.9349V37.3438H40.9503ZM40.0091 32.6406V32.1094H40.3332C40.8886 32.1094 41.3207 31.6563 41.3207 31.1094V30.0156C41.3207 29.9375 41.3207 29.8594 41.3207 29.7813C41.3207 29.625 41.3361 29.4687 41.3515 29.3281C41.3515 29.2812 41.3515 29.25 41.367 29.2188C41.3824 29.0938 41.3824 28.9844 41.3978 28.8594C41.3978 28.8281 41.4132 28.7812 41.4132 28.75C41.4287 28.625 41.4441 28.5 41.475 28.375C41.475 28.3438 41.4904 28.3125 41.4904 28.2969C41.5212 28.1406 41.5521 28 41.5984 27.8437C41.9687 26.4062 42.6785 25.0781 43.7123 23.9844C44.9158 22.7187 46.4279 21.8594 48.0943 21.5156V24.2188C48.0943 25.8125 49.375 27.1094 50.9488 27.1094H51.89C53.4638 27.1094 54.7445 25.8125 54.7445 24.2188V21.5156C56.3955 21.8594 57.923 22.7187 59.1265 23.9844C60.6078 25.5469 61.4564 27.625 61.5027 29.8125C61.5027 29.8906 61.5027 29.9688 61.5027 30.0469V31.1406C61.5027 31.7031 61.9502 32.1406 62.4902 32.1406H62.8142V32.6719H40.0091V32.6406ZM42.9716 39.5312C42.9716 39.5156 42.9716 39.5 42.9716 39.4844C42.9562 39.4062 42.9562 39.3125 42.9562 39.2344C42.9562 39.2188 42.9562 39.2031 42.9562 39.1875C42.9562 39.0937 42.9408 39 42.9408 38.9062V34.9688H59.9289V38.8906C59.9289 38.9844 59.9289 39.0781 59.9134 39.1875C59.9134 39.2031 59.9134 39.2031 59.9134 39.2188C59.9134 39.2969 59.898 39.3906 59.898 39.4844C59.898 39.5 59.898 39.5156 59.898 39.5312C59.8826 39.625 59.8671 39.7187 59.8517 39.8125C59.4968 41.9688 57.9847 44.2656 56.1177 45.6406C56.1023 45.6563 56.0869 45.6562 56.0714 45.6719C56.0097 45.7188 55.948 45.75 55.8863 45.7969C55.8554 45.8125 55.8246 45.8438 55.7937 45.8594C55.7783 45.875 55.7628 45.875 55.7474 45.8906C55.6857 45.9375 55.624 45.9688 55.5623 46C55.5623 46 55.5623 46 55.5468 46C54.9914 46.3438 54.4205 46.5938 53.8341 46.75L53.7261 46.7812C51.6123 47.3125 51.1185 47.3125 48.9892 46.7656C48.4183 46.625 47.8474 46.3594 47.292 46.0313C47.2765 46.0156 47.2457 46 47.2302 45.9844C47.1685 45.9375 47.1068 45.9063 47.0296 45.8594C47.0142 45.8438 46.9988 45.8438 46.9834 45.8281C44.9466 44.4062 43.2494 41.8594 42.9716 39.5312ZM46.7673 51.1094C47.3845 50.875 47.7857 50.2969 47.7857 49.625V48.5C48.0326 48.5938 48.2795 48.6719 48.5109 48.7344C49.7298 49.0469 50.5476 49.2031 51.3808 49.2031C52.1986 49.2031 53.0164 49.0469 54.2199 48.75L54.3279 48.7188C54.5902 48.6562 54.8371 48.5781 55.0839 48.4844V49.6406C55.0839 50.3125 55.4851 50.8906 56.1023 51.125L57.6916 51.9375C57.6761 51.9531 57.6607 51.9688 57.6298 51.9844C57.5836 52.0156 57.5373 52.0469 57.491 52.0781C57.4138 52.1406 57.3212 52.2031 57.2441 52.2656C57.1978 52.2969 57.1515 52.3281 57.1052 52.3594C57.0127 52.4219 56.9355 52.4688 56.8429 52.5313C56.7966 52.5625 56.7504 52.5938 56.7041 52.6094C56.5961 52.6719 56.488 52.7344 56.38 52.7969C56.3492 52.8125 56.3337 52.8281 56.3029 52.8438C56.164 52.9219 56.0252 52.9844 55.8863 53.0625C55.8554 53.0781 55.8091 53.0938 55.7783 53.1094C55.6703 53.1562 55.5777 53.2031 55.4697 53.25C55.4234 53.2656 55.3617 53.2969 55.3154 53.3125C55.2228 53.3438 55.1302 53.3906 55.0222 53.4219C54.9759 53.4375 54.9142 53.4688 54.8679 53.4844C54.7754 53.5156 54.6673 53.5469 54.5593 53.5781C54.513 53.5938 54.4668 53.6094 54.4205 53.625C54.2816 53.6719 54.1582 53.7031 54.0193 53.7344C54.0039 53.7344 53.9884 53.75 53.973 53.75C53.8187 53.7812 53.6644 53.8281 53.5101 53.8594C53.4638 53.875 53.4175 53.875 53.3712 53.8906C53.2632 53.9062 53.1552 53.9375 53.0318 53.9531C52.9701 53.9688 52.9238 53.9688 52.8621 53.9844C52.7541 54 52.6615 54.0156 52.5535 54.0156C52.4918 54.0156 52.4455 54.0312 52.3837 54.0312C52.2757 54.0469 52.1677 54.0469 52.0443 54.0625C51.998 54.0625 51.9517 54.0625 51.9054 54.0781C51.7511 54.0781 51.5814 54.0938 51.4271 54.0938C51.2728 54.0938 51.1031 54.0938 50.9488 54.0781C50.9025 54.0781 50.8562 54.0781 50.8099 54.0625C50.7019 54.0625 50.5939 54.0469 50.4705 54.0312C50.4088 54.0312 50.3625 54.0156 50.3007 54.0156C50.1927 54 50.0847 53.9844 49.9921 53.9844C49.9304 53.9844 49.8841 53.9688 49.8224 53.9531C49.7144 53.9375 49.6064 53.9219 49.483 53.8906C49.4367 53.875 49.3904 53.875 49.3441 53.8594C49.1898 53.8281 49.0355 53.7969 48.8812 53.75C48.8658 53.75 48.8504 53.7344 48.8349 53.7344C48.6961 53.7031 48.5726 53.6563 48.4337 53.625C48.3875 53.6094 48.3412 53.5938 48.2949 53.5781C48.1869 53.5469 48.0943 53.5156 47.9863 53.4844C47.94 53.4688 47.8783 53.4531 47.832 53.4219C47.7394 53.3906 47.6314 53.3438 47.5388 53.3125C47.4925 53.2969 47.4308 53.2656 47.3845 53.25C47.2765 53.2031 47.1685 53.1562 47.0759 53.1094C47.0451 53.0938 46.9988 53.0781 46.9679 53.0625C46.8291 53 46.6902 52.9219 46.5513 52.8438C46.5205 52.8281 46.505 52.8125 46.4742 52.7969C46.3662 52.7344 46.2582 52.6719 46.1347 52.6094C46.0884 52.5781 46.0421 52.5469 45.9959 52.5313C45.9033 52.4688 45.8107 52.4219 45.7336 52.3594C45.6873 52.3281 45.641 52.2969 45.5947 52.2656C45.5021 52.2031 45.425 52.1406 45.3324 52.0781C45.2861 52.0469 45.2398 52.0156 45.2089 51.9844C45.1935 51.9688 45.1781 51.9531 45.1472 51.9375L46.7673 51.1094ZM50.4396 73.7344H34.7013V54.4531L41.2744 52.0938L42.0304 55.875C42.3082 57.2969 43.1722 58.5469 44.3757 59.3125L50.4396 63.1719V73.7344ZM45.4404 57.6094C44.6843 57.125 44.1597 56.3594 43.99 55.4688L43.5271 53.1406C43.558 53.1719 43.6043 53.2031 43.6351 53.2344C45.8261 55.0625 48.5572 56.0469 51.4425 56.0469C52.2449 56.0469 53.0318 55.9688 53.8033 55.8125C55.8554 55.4219 57.7687 54.5 59.3734 53.125L58.9105 55.4531C58.7408 56.3281 58.2007 57.1094 57.4601 57.5938L51.458 61.4219L45.4404 57.6094ZM68.1683 73.7344H52.43V63.1719L58.4939 59.3125C59.6974 58.5469 60.5615 57.2969 60.8392 55.875L61.5953 52.0938L68.1683 54.4531V73.7344Z" fill="white"/>
<path d="M24.3634 54.5312H23.9314L25.1966 43.0938H27.1562L28.1282 51.9688L29.9026 51.4062L28.8997 42.25L29.2854 40.8906L30.705 41.9375C30.9981 42.1562 31.3222 42.25 31.6462 42.25C32.1245 42.25 32.5874 42.0312 32.896 41.6406L36.6917 36.8125L37.2626 33.4531L35.0716 32.6719C35.0099 32.6406 34.9327 32.625 34.871 32.6094C34.8401 32.6094 34.8093 32.5938 34.7938 32.5938H34.7784C34.331 32.5313 33.8681 32.6875 33.544 33.0156L33.3126 33.25L31.3067 32.2344V30.4531C31.9085 30.0312 32.4794 29.5312 33.004 28.9688L33.0194 28.9531C34.331 27.5313 35.2876 25.7344 35.6116 23.9531C35.6271 23.9062 35.6271 23.8594 35.6425 23.8281C35.6579 23.7812 35.6579 23.7344 35.6733 23.6719C35.6888 23.5938 35.6888 23.5156 35.7042 23.4375C35.7042 23.4219 35.7042 23.3906 35.7196 23.375C35.7351 23.2812 35.7351 23.2031 35.7351 23.1094H36.1054C37.278 23.1094 38.2347 22.1406 38.2347 20.9531V18.5469C38.2347 18.2031 38.0804 17.8906 37.9261 17.6719V13.5C37.9261 12.8906 37.8644 12.3125 37.7563 11.7344C36.954 7.75 33.4669 4.75 29.3009 4.75H23.0673C19.5493 4.75 16.5097 6.89062 15.1673 9.96875C15.1673 9.96875 14.5655 11.4844 14.5655 11.9219C14.5655 11.9531 14.5655 11.9844 14.5501 12.0156C14.5501 12.0312 14.5501 12.0625 14.5347 12.0781C14.5192 12.1406 14.5192 12.1875 14.5038 12.25C14.4884 12.3281 14.4884 12.4219 14.473 12.5C14.473 12.5625 14.4575 12.6094 14.4575 12.6719C14.4421 12.7656 14.4421 12.8594 14.4421 12.9375C14.4421 12.9844 14.4421 13.0312 14.4267 13.0938C14.4267 13.2344 14.4112 13.375 14.4112 13.5156V14.5469V17.0625V17.6719C14.2569 17.8906 14.1026 18.2031 14.1026 18.5469V20.9531C14.1026 22.1406 15.0593 23.1094 16.2319 23.1094H16.6022C16.6022 23.2031 16.6177 23.2969 16.6331 23.3906C16.6331 23.4219 16.6331 23.4375 16.6485 23.4688C16.664 23.5469 16.664 23.625 16.6794 23.7031C16.6794 23.75 16.6948 23.7969 16.6948 23.8281C16.7103 23.8906 16.7103 23.9375 16.7257 24C16.7411 24.1094 16.772 24.2188 16.7874 24.3281C16.7874 24.3594 16.8028 24.375 16.8028 24.4062C16.8183 24.4844 16.8337 24.5469 16.8646 24.625C16.8646 24.6406 16.88 24.6562 16.88 24.6719C17.0343 25.2656 17.2657 25.8438 17.5435 26.4062C17.5435 26.4219 17.5589 26.4219 17.5589 26.4375C17.6669 26.6562 17.7903 26.875 17.9138 27.0938C17.9292 27.125 17.9446 27.1562 17.9755 27.1875C18.0063 27.25 18.0372 27.2969 18.0835 27.3594C18.1144 27.4063 18.1452 27.4531 18.1761 27.5C18.2069 27.5469 18.2378 27.5938 18.2687 27.6406C18.3304 27.7344 18.3921 27.8125 18.4538 27.9063C18.4847 27.9375 18.5001 27.9688 18.531 28C18.5772 28.0625 18.6235 28.125 18.6698 28.1875C18.7007 28.2188 18.7161 28.25 18.747 28.2812C18.8087 28.3594 18.8858 28.4531 18.9476 28.5313L18.963 28.5469C19.0401 28.6406 19.1173 28.7188 19.1944 28.8125C19.2253 28.8438 19.2407 28.875 19.2716 28.8906C19.3333 28.9531 19.3796 29.0156 19.4413 29.0781C19.4722 29.1094 19.503 29.1406 19.5185 29.1719C19.5802 29.25 19.6573 29.3125 19.7345 29.3906C19.7808 29.4375 19.8116 29.4688 19.8579 29.5156C19.9042 29.5625 19.9505 29.5938 19.9968 29.6406C20.0431 29.6875 20.0894 29.7344 20.1356 29.7656C20.1665 29.7969 20.1974 29.8125 20.2282 29.8438C20.506 30.0781 20.7837 30.2969 21.0614 30.5V32.25L19.0556 33.2656L18.8241 33.0312C18.423 32.625 17.8212 32.4844 17.2966 32.6719L13.8712 33.9062L9.24229 35.5625L5.55459 37.0781C5.55459 37.0781 4.73682 37.2031 3.73389 38.6406C3.56416 38.8906 3.36358 39.1406 3.17842 39.375C3.16299 39.3906 3.14756 39.4062 3.14756 39.4375C3.1167 39.4844 3.08584 39.5312 3.05498 39.5781C3.03955 39.6094 3.00869 39.6406 2.99326 39.6719C2.9624 39.7188 2.93155 39.7656 2.90069 39.8281C2.88526 39.8594 2.8544 39.8906 2.83897 39.9375C2.80811 39.9844 2.77725 40.0312 2.74639 40.0938C2.73096 40.125 2.71553 40.1719 2.68467 40.2031C2.65381 40.25 2.62295 40.3125 2.60752 40.3594C2.59209 40.3906 2.57666 40.4375 2.56123 40.4688C2.53037 40.5156 2.51494 40.5781 2.48408 40.625C2.46865 40.6562 2.45323 40.7031 2.4378 40.7344C2.42237 40.7813 2.39151 40.8438 2.37608 40.8906C2.36065 40.9219 2.34522 40.9688 2.32979 41.0156C2.31436 41.0625 2.2835 41.125 2.26807 41.1719C2.25264 41.2188 2.23721 41.25 2.22178 41.2969C2.20635 41.3438 2.19092 41.4062 2.16006 41.4531C2.14463 41.5 2.1292 41.5312 2.11377 41.5781C2.09834 41.625 2.08291 41.6875 2.06748 41.7344C2.05205 41.7813 2.03662 41.8281 2.03662 41.8594C2.02119 41.9062 2.00576 41.9688 1.99033 42.0156C1.9749 42.0625 1.9749 42.1094 1.95948 42.1562C1.94405 42.2031 1.92862 42.2656 1.92862 42.3125C1.91319 42.3594 1.91319 42.4063 1.89776 42.4531C1.88233 42.5 1.88233 42.5625 1.8669 42.6094C1.85147 42.6563 1.85147 42.7031 1.85147 42.75C1.83604 42.7969 1.83604 42.8594 1.82061 42.9062C1.82061 42.9531 1.80518 43 1.80518 43.0469C1.80518 43.0938 1.78975 43.1562 1.78975 43.2031C1.78975 43.25 1.77432 43.2969 1.77432 43.3594C1.77432 43.4062 1.75889 43.4531 1.75889 43.5L1.63545 46.2188L1.31143 53.75C1.26514 54.4375 1.51201 55.1094 1.9749 55.6094C2.4378 56.1094 3.10127 56.4062 3.78018 56.4062H22.6815C23.1599 55.7031 23.7462 55.0781 24.3634 54.5312ZM27.295 41.25H25.0731L24.6411 39.7188L26.1841 38.5781L27.7271 39.7188L27.295 41.25ZM32.3251 36.5313C32.4022 36.4844 32.464 36.4375 32.5411 36.3906C32.6183 36.3438 32.68 36.2969 32.7417 36.25C32.8034 36.2031 32.8651 36.1719 32.9114 36.125C33.0349 36.0312 33.1583 35.9375 33.2663 35.8438C33.3126 35.8125 33.3435 35.7656 33.3897 35.7344C33.4823 35.6562 33.5749 35.5781 33.6521 35.5C33.6983 35.4688 33.7292 35.4375 33.7755 35.3906C33.8989 35.2813 34.0069 35.1719 34.1304 35.0469L34.4081 34.7656L34.6858 34.4844L35.8739 34.9062L31.5999 40.3438L28.5911 38.1094H28.6065C29.5015 37.9062 30.381 37.5938 31.1987 37.1875C31.2142 37.1719 31.2296 37.1719 31.2605 37.1562C31.569 37 31.8622 36.8281 32.1554 36.6406C32.2171 36.5938 32.2788 36.5625 32.3251 36.5313ZM36.4294 20.9531C36.4294 21.125 36.2905 21.2656 36.1208 21.2656H35.7505V18.7656C35.9665 18.8438 36.1825 18.8906 36.414 18.9219V20.9531H36.4294ZM16.5868 21.2656H16.2165C16.0468 21.2656 15.9079 21.125 15.9079 20.9531V18.9062C16.1394 18.8906 16.3554 18.8281 16.5714 18.75V21.2656H16.5868ZM18.0526 14.2188L17.7595 14.125C17.7286 14.1094 17.6978 14.1094 17.6823 14.1094C17.4354 14.0625 17.1731 14.125 16.9726 14.2812C16.8028 14.4062 16.6794 14.5938 16.6331 14.8125C16.6177 14.875 16.6022 14.9531 16.6022 15.0312V16.1719C16.6022 16.4219 16.5097 16.6562 16.3399 16.8281C16.3091 16.8594 16.2782 16.8906 16.2474 16.9062V16.6719V13.5C16.2474 13.375 16.2474 13.2344 16.2628 13.1094C16.2628 13.0625 16.2628 13.0312 16.2782 12.9844C16.2782 12.8906 16.2937 12.8125 16.3091 12.7188C16.3091 12.6719 16.3245 12.625 16.3245 12.5625C16.3399 12.4844 16.3399 12.4062 16.3554 12.3281C16.3708 12.2812 16.3708 12.2188 16.3862 12.1719C16.4017 12.0938 16.4171 12.0312 16.4325 11.9531C17.1269 8.89062 19.8425 6.59375 23.0827 6.59375H29.3163C32.6028 6.59375 35.3647 8.96875 35.9974 12.1094C36.0899 12.5625 36.1362 13.0312 36.1362 13.5V16.8906C36.1054 16.8594 36.0745 16.8438 36.0437 16.8125C35.8739 16.6406 35.7813 16.4062 35.7813 16.1562V15.0156C35.7813 14.9375 35.7659 14.875 35.7505 14.7969C35.7042 14.5937 35.5808 14.4062 35.411 14.2656C35.3802 14.2344 35.3339 14.2188 35.303 14.1875C35.2876 14.1875 35.2876 14.1719 35.2722 14.1719C35.2413 14.1562 35.2104 14.1406 35.1796 14.125C35.1642 14.125 35.1642 14.1094 35.1487 14.1094C35.1024 14.0938 35.0716 14.0781 35.0253 14.0781C35.0099 14.0781 35.0099 14.0781 34.9944 14.0781C34.9636 14.0781 34.9327 14.0781 34.8864 14.0625H34.871H34.8556C34.8247 14.0625 34.8093 14.0625 34.7784 14.0625C34.763 14.0625 34.7476 14.0625 34.7476 14.0625C34.7013 14.0625 34.6704 14.0781 34.6241 14.0937L34.439 14.1562L33.6058 14.4062C28.7608 15.8437 23.6536 15.8437 18.8087 14.4062L18.0526 14.2188ZM18.4384 23.25C18.4384 23.2344 18.4384 23.2188 18.4384 23.2188C18.423 23.1406 18.423 23.0625 18.423 22.9844C18.423 22.9688 18.423 22.9687 18.423 22.9531C18.423 22.8594 18.4075 22.7812 18.4075 22.6875V16.25C23.4839 17.7344 28.8534 17.7344 33.9298 16.25V22.6719C33.9298 22.7656 33.9298 22.8438 33.9298 22.9375C33.9298 22.9531 33.9298 22.9688 33.9298 22.9688C33.9298 23.0469 33.9144 23.125 33.9144 23.2031C33.9144 23.2188 33.9144 23.2344 33.9144 23.25C33.8989 23.3281 33.8989 23.4219 33.8835 23.5C33.8835 23.5 33.8835 23.5 33.8835 23.5156C33.5595 25.4844 32.1708 27.5781 30.4735 28.8438C30.4581 28.8594 30.4427 28.8594 30.4427 28.875C30.381 28.9219 30.3347 28.9531 30.2729 28.9844C30.2421 29 30.2112 29.0312 30.1804 29.0469C30.1649 29.0625 30.1495 29.0625 30.1341 29.0781C30.0724 29.1094 30.0261 29.1563 29.9644 29.1875C29.9644 29.1875 29.9644 29.1875 29.9489 29.1875C29.4397 29.5 28.9151 29.7344 28.3905 29.8594L28.2979 29.8906C26.3538 30.375 25.9218 30.375 23.9622 29.875C23.4376 29.7344 22.913 29.5156 22.4192 29.2031C22.4038 29.1875 22.3729 29.1719 22.3575 29.1563C22.2958 29.125 22.2495 29.0781 22.1878 29.0469C22.1724 29.0312 22.1569 29.0312 22.1415 29.0156C20.2437 27.7188 18.6853 25.375 18.4384 23.25ZM21.9101 33.8438C22.4655 33.625 22.8358 33.0938 22.8358 32.4844V31.4531C23.0519 31.5313 23.2833 31.6094 23.4993 31.6563C24.6103 31.9375 25.3663 32.0781 26.1224 32.0781C26.863 32.0781 27.619 31.9375 28.7146 31.6563L28.8071 31.625C29.0386 31.5625 29.27 31.5 29.5015 31.4062V32.4531C29.5015 33.0625 29.8718 33.5938 30.4272 33.8125L31.8776 34.5469C31.8622 34.5625 31.8313 34.5781 31.8159 34.5938C31.7851 34.625 31.7542 34.6406 31.7233 34.6719C31.7079 34.6875 31.6925 34.6875 31.6771 34.7031C31.6153 34.75 31.5536 34.7969 31.4765 34.8438C31.4765 34.8438 31.4765 34.8438 31.461 34.8438C31.3993 34.8906 31.3376 34.9219 31.2759 34.9688C31.2296 35 31.1833 35.0313 31.137 35.0469C31.0599 35.0938 30.9827 35.1406 30.921 35.1875C30.9056 35.2031 30.8747 35.2188 30.8593 35.2344C30.5815 35.3906 30.2884 35.5469 29.9952 35.6719C29.9798 35.6719 29.9798 35.6719 29.9644 35.6875C29.5478 35.875 29.1003 36.0312 28.6528 36.1562C28.5448 36.1875 28.4368 36.2188 28.3134 36.2344H28.2979C28.1899 36.2656 28.0819 36.2812 27.9739 36.3125C27.8351 36.3438 27.6808 36.3594 27.5419 36.3906C27.5265 36.3906 27.511 36.3906 27.4956 36.3906C27.4647 36.3906 27.4339 36.4062 27.3876 36.4062C27.3259 36.4219 27.2642 36.4219 27.187 36.4375C27.1562 36.4375 27.1253 36.4375 27.0944 36.4531C27.0481 36.4531 27.0173 36.4531 26.971 36.4688C26.8938 36.4688 26.8013 36.4844 26.7241 36.4844C26.7087 36.4844 26.6933 36.4844 26.6933 36.4844C26.647 36.4844 26.6161 36.4844 26.5698 36.4844C26.431 36.4844 26.2921 36.5 26.1532 36.5C26.0144 36.5 25.8601 36.5 25.7212 36.4844C25.6749 36.4844 25.6286 36.4844 25.5823 36.4688C25.4897 36.4688 25.3817 36.4531 25.2892 36.4531C25.2429 36.4531 25.1812 36.4375 25.1349 36.4375C25.0423 36.4219 24.9497 36.4219 24.8571 36.4062C24.8108 36.4062 24.7491 36.3906 24.7028 36.3906C24.6103 36.375 24.5022 36.3594 24.4097 36.3438C24.3634 36.3281 24.3171 36.3281 24.2708 36.3125C24.1319 36.2812 23.9931 36.25 23.8542 36.2188C23.8233 36.2188 23.8079 36.2031 23.7771 36.2031C23.669 36.1719 23.561 36.1406 23.4376 36.1094C23.3913 36.0938 23.3296 36.0781 23.2833 36.0625C23.2062 36.0313 23.1136 36.0156 23.0364 35.9844C22.9747 35.9688 22.9284 35.9375 22.8667 35.9219C22.7896 35.8906 22.7124 35.8594 22.6353 35.8281C22.5735 35.8125 22.5272 35.7812 22.4655 35.7656C22.3884 35.7344 22.3112 35.6875 22.2187 35.6562C22.1724 35.6406 22.1261 35.6094 22.0644 35.5938C21.9409 35.5313 21.8175 35.4688 21.7095 35.4063C21.6632 35.375 21.6169 35.3594 21.5706 35.3281C21.4935 35.2813 21.4163 35.25 21.3392 35.2031C21.2774 35.1719 21.2312 35.1406 21.1694 35.0938C21.1077 35.0469 21.046 35.0156 20.9688 34.9688C20.9071 34.9375 20.8608 34.8906 20.7991 34.8594C20.7374 34.8125 20.6757 34.7656 20.614 34.7188C20.5677 34.6875 20.506 34.6406 20.4597 34.6094C20.4442 34.5938 20.4288 34.5938 20.4134 34.5781L21.9101 33.8438ZM17.6515 34.4688L18.2069 35.0312C18.3304 35.1562 18.4538 35.2656 18.5772 35.375C18.6081 35.4062 18.6544 35.4375 18.6853 35.4688C18.7778 35.5625 18.8858 35.6406 18.9784 35.7188C19.0093 35.75 19.0401 35.7813 19.071 35.7969C19.1944 35.9063 19.3333 36 19.4567 36.1094C19.4876 36.125 19.503 36.1406 19.5339 36.1719C19.6419 36.25 19.7499 36.3281 19.8579 36.4062C19.9042 36.4375 19.9351 36.4688 19.9813 36.4844C20.0894 36.5625 20.2128 36.6406 20.3208 36.7031C20.3517 36.7188 20.3671 36.7344 20.3979 36.75C20.5368 36.8281 20.6757 36.9219 20.8146 37C20.8454 37.0156 20.8917 37.0469 20.9226 37.0625C21.0306 37.125 21.1386 37.1719 21.262 37.2344C21.3083 37.25 21.3392 37.2812 21.3855 37.2969C21.5397 37.3594 21.6786 37.4375 21.8329 37.5C21.8483 37.5 21.8483 37.5 21.8638 37.5156C22.0026 37.5781 22.1569 37.625 22.2958 37.6875C22.3421 37.7031 22.3884 37.7188 22.4347 37.7344C22.5581 37.7812 22.6815 37.8125 22.7896 37.8594C22.8204 37.875 22.8667 37.8906 22.8976 37.8906C23.0519 37.9375 23.2062 37.9844 23.3604 38.0156C23.3913 38.0312 23.4222 38.0312 23.453 38.0469C23.5302 38.0625 23.6228 38.0938 23.6999 38.1094L20.6911 40.3281L16.4171 34.8906L17.6515 34.4688ZM9.96748 44.8438C9.4583 44.8438 9.05713 45.25 9.05713 45.7656V54.5312H3.73389C3.54873 54.5312 3.37901 54.4531 3.25557 54.3281C3.13213 54.1875 3.07041 54.0156 3.08584 53.8281V53.8125L3.5333 43.6094C3.62588 42.1094 4.24307 40.7188 5.21514 39.6719L5.23057 39.6562C5.246 39.6406 5.246 39.6406 5.26143 39.625C5.84776 39.0156 6.55752 38.5156 7.32901 38.1875C7.34444 38.1875 7.35987 38.1719 7.3753 38.1719C7.4833 38.125 7.57588 38.0938 7.68389 38.0469L14.6581 35.5469L19.4413 41.6406C19.7653 42.0469 20.2282 42.25 20.6911 42.25C21.0151 42.25 21.3546 42.1406 21.6323 41.9375L23.0519 40.8906L23.4376 42.25L22.0798 54.5312H10.8778V45.7656C10.8778 45.25 10.4612 44.8438 9.96748 44.8438Z" fill="white"/>
</svg>
