<svg width="42" height="42" viewBox="0 0 42 42" fill="none" xmlns="http://www.w3.org/2000/svg">
<g clip-path="url(#clip0_29_429)">
<path fill-rule="evenodd" clip-rule="evenodd" d="M21 0C9.40275 0 0 9.40275 0 21C0 32.5972 9.40275 42 21 42C32.5972 42 42 32.5972 42 21C42 9.40275 32.5972 0 21 0ZM30.7335 14.2818C30.4185 17.6015 29.05 25.6602 28.3552 29.379C28.0612 30.954 27.4803 31.4807 26.9202 31.5315C25.7005 31.6435 24.7747 30.7248 23.5935 29.9513C21.7455 28.7402 20.7008 27.986 18.907 26.803C16.8333 25.4363 18.1772 24.6855 19.3585 23.4587C19.6683 23.1367 25.0408 18.249 25.1458 17.8062C25.158 17.7502 25.172 17.5438 25.0477 17.4353C24.9235 17.3267 24.7432 17.3635 24.6137 17.3932C24.4282 17.4352 21.476 19.3865 15.7553 23.247C14.917 23.8228 14.1575 24.1028 13.4768 24.0888C12.7278 24.073 11.2857 23.6653 10.213 23.3153C8.89875 22.8883 7.85225 22.6607 7.94325 21.9362C7.9905 21.5583 8.51025 21.1715 9.50425 20.776C15.6258 18.109 19.7085 16.3503 21.7507 15.4998C27.5835 13.0743 28.7945 12.6525 29.5855 12.6385C30.576 12.6245 30.814 13.4418 30.7335 14.2818Z" fill="#2875B7"/>
</g>
<defs>
<clipPath id="clip0_29_429">
<rect width="42" height="42" fill="white"/>
</clipPath>
</defs>
</svg>
