<svg width="42" height="42" viewBox="0 0 42 42" fill="none" xmlns="http://www.w3.org/2000/svg">
<g clip-path="url(#clip0_29_424)">
<path fill-rule="evenodd" clip-rule="evenodd" d="M21 42C32.598 42 42 32.598 42 21C42 9.40202 32.598 0 21 0C9.40202 0 0 9.40202 0 21C0 32.598 9.40202 42 21 42ZM27.2403 16.0203C28.8638 17.1824 30.8536 17.8664 33 17.8664L32.999 13.7412C31.843 13.7412 30.7653 13.3982 29.8622 12.8112C28.5648 11.9682 27.6286 10.6191 27.3366 9.04704C27.2744 8.70703 27.2393 8.35802 27.2393 8H23.0991L23.096 24.5357C23.0258 26.3878 21.4966 27.8738 19.6221 27.8738C19.0391 27.8738 18.4903 27.7288 18.0076 27.4758C16.8998 26.8948 16.1412 25.7377 16.1412 24.4057C16.1412 22.4926 17.7026 20.9365 19.6211 20.9365C19.9794 20.9365 20.3225 20.9955 20.6476 21.0965V17.8614V16.8844C20.3115 16.8394 19.9703 16.8104 19.6211 16.8104C15.4187 16.8104 12 20.2175 12 24.4057C12 26.9748 13.2884 29.2489 15.2532 30.6239C16.4904 31.49 17.9966 32 19.6201 32C23.8215 32 27.2403 28.5939 27.2403 24.4057V16.0203Z" fill="#2875B7"/>
</g>
<defs>
<clipPath id="clip0_29_424">
<rect width="42" height="42" fill="white"/>
</clipPath>
</defs>
</svg>
