<svg width="41" height="42" viewBox="0 0 41 42" fill="none" xmlns="http://www.w3.org/2000/svg">
<path fill-rule="evenodd" clip-rule="evenodd" d="M20.5 42C31.8218 42 41 32.598 41 21C41 9.40202 31.8218 0 20.5 0C9.17816 0 0 9.40202 0 21C0 32.598 9.17816 42 20.5 42ZM30.2667 13.5067C31.3427 13.7863 32.1896 14.6097 32.4771 15.6544C33 17.5486 33 21.5 33 21.5C33 21.5 33 25.4514 32.4781 27.3456C32.1896 28.3913 31.3427 29.2137 30.2677 29.4933C28.3177 30 20.5 30 20.5 30C20.5 30 12.6823 30 10.7333 29.4933C9.65729 29.2137 8.81042 28.3903 8.52292 27.3456C8 25.4514 8 21.5 8 21.5C8 21.5 8 17.5486 8.52292 15.6544C8.81042 14.6087 9.65729 13.7863 10.7323 13.5067C12.6823 13 20.5 13 20.5 13C20.5 13 28.3177 13 30.2667 13.5067ZM24.4771 21.5L17.9437 17.9116V25.0884L24.4771 21.5Z" fill="#2875B7"/>
</svg>
